<svg xmlns="http://www.w3.org/2000/svg" xmlns:xlink="http://www.w3.org/1999/xlink" viewBox="0,0,256,256" width="50px" height="50px" fill-rule="nonzero"><g fill="none" fill-rule="nonzero" stroke="none" stroke-width="1" stroke-linecap="butt" stroke-linejoin="miter" stroke-miterlimit="10" stroke-dasharray="" stroke-dashoffset="0" font-family="none" font-weight="none" font-size="none" text-anchor="none" style="mix-blend-mode: normal"><g transform="scale(2.56,2.56)"><path d="M13,27c-1.10457,0 -2,0.89543 -2,2c0,1.10457 0.89543,2 2,2c1.10457,0 2,-0.89543 2,-2c0,-1.10457 -0.89543,-2 -2,-2z" fill="#89c3b2"></path><path d="M77,12c-0.55228,0 -1,0.44772 -1,1c0,0.55228 0.44772,1 1,1c0.55228,0 1,-0.44772 1,-1c0,-0.55228 -0.44772,-1 -1,-1z" fill="#f1bc19"></path><path d="M50,13c-20.43454,0 -37,16.56546 -37,37c0,20.43454 16.56546,37 37,37c20.43454,0 37,-16.56546 37,-37c0,-20.43454 -16.56546,-37 -37,-37z" fill="#cee1f4"></path><path d="M83,11c-2.20914,0 -4,1.79086 -4,4c0,2.20914 1.79086,4 4,4c2.20914,0 4,-1.79086 4,-4c0,-2.20914 -1.79086,-4 -4,-4z" fill="#f1bc19"></path><path d="M87,22c-1.10457,0 -2,0.89543 -2,2c0,1.10457 0.89543,2 2,2c1.10457,0 2,-0.89543 2,-2c0,-1.10457 -0.89543,-2 -2,-2z" fill="#89c3b2"></path><path d="M81,74c-1.10457,0 -2,0.89543 -2,2c0,1.10457 0.89543,2 2,2c1.10457,0 2,-0.89543 2,-2c0,-1.10457 -0.89543,-2 -2,-2zM15,59c-2.20914,0 -4,1.79086 -4,4c0,2.20914 1.79086,4 4,4c2.20914,0 4,-1.79086 4,-4c0,-2.20914 -1.79086,-4 -4,-4z" fill="#fbcd59"></path><path d="M25,85c-1.10457,0 -2,0.89543 -2,2c0,1.10457 0.89543,2 2,2c1.10457,0 2,-0.89543 2,-2c0,-1.10457 -0.89543,-2 -2,-2z" fill="#89c3b2"></path><path d="M18.5,51c-1.38071,0 -2.5,1.11929 -2.5,2.5c0,1.38071 1.11929,2.5 2.5,2.5c1.38071,0 2.5,-1.11929 2.5,-2.5c0,-1.38071 -1.11929,-2.5 -2.5,-2.5z" fill="#ffffff"></path><path d="M21,66c-0.55228,0 -1,0.44772 -1,1c0,0.55228 0.44772,1 1,1c0.55228,0 1,-0.44772 1,-1c0,-0.55228 -0.44772,-1 -1,-1z" fill="#f1bc19"></path><path d="M80,33c-0.55228,0 -1,0.44772 -1,1c0,0.55228 0.44772,1 1,1c0.55228,0 1,-0.44772 1,-1c0,-0.55228 -0.44772,-1 -1,-1z" fill="#ffffff"></path><g><path d="M56.262,25.75c-2.393,0 -4.474,0.302 -6.242,0.905c-1.769,-0.603 -3.85,-0.905 -6.242,-0.905c-10.3,0 -16.09,6.132 -16.09,15.078c0,6.433 4.333,9.952 6.206,16.485c2.08,7.439 2.912,16.687 7.802,16.687c2.601,0 3.816,-1.718 3.816,-4.935c0,-4.523 1.282,-10.345 2.219,-15.371c0.52,-2.412 4.058,-2.412 4.474,0c0.936,4.926 2.22,10.984 2.22,15.508c0,3.217 1.213,4.798 3.814,4.798c4.89,0 5.722,-9.348 7.803,-16.686c1.873,-6.534 6.207,-10.052 6.207,-16.485c0.104,-8.947 -5.687,-15.079 -15.987,-15.079z" fill="#fefdef"></path><path d="M58.239,74.7c-2.996,0 -4.515,-1.85 -4.515,-5.498c0,-3.937 -0.995,-9.089 -1.873,-13.636l-0.334,-1.741c-0.155,-0.898 -0.862,-1.227 -1.473,-1.24c-0.638,-0.01 -1.425,0.308 -1.629,1.256c-0.144,0.772 -0.299,1.584 -0.458,2.407c-0.858,4.459 -1.745,9.071 -1.745,12.816c0,4.657 -2.456,5.635 -4.516,5.635c-4.41,0 -5.804,-6.003 -7.279,-12.359c-0.375,-1.611 -0.761,-3.277 -1.198,-4.839c-0.744,-2.596 -1.896,-4.716 -3.01,-6.768c-1.656,-3.048 -3.221,-5.928 -3.221,-9.906c0,-9.732 6.434,-15.778 16.79,-15.778c2.358,0 4.457,0.292 6.243,0.868c1.786,-0.576 3.884,-0.868 6.242,-0.868c5.27,0 9.614,1.578 12.563,4.562c2.75,2.782 4.176,6.664 4.124,11.225c0,3.97 -1.565,6.85 -3.222,9.898c-1.115,2.051 -2.267,4.171 -3.013,6.771c-0.444,1.566 -0.837,3.253 -1.217,4.885c-1.476,6.331 -2.87,12.31 -7.259,12.31zM50.008,51.186c0.022,0 0.043,0 0.065,0c1.446,0.03 2.58,0.991 2.821,2.39l0.332,1.726c0.89,4.608 1.899,9.831 1.899,13.901c0,3.61 1.574,4.097 3.114,4.097c3.278,0 4.549,-5.453 5.895,-11.227c0.384,-1.647 0.781,-3.351 1.235,-4.951c0.788,-2.75 1.978,-4.939 3.128,-7.056c1.638,-3.014 3.052,-5.616 3.052,-9.238c0.049,-4.187 -1.237,-7.722 -3.719,-10.232c-2.681,-2.712 -6.681,-4.146 -11.568,-4.146c-2.304,0 -4.329,0.292 -6.016,0.867c-0.146,0.05 -0.306,0.05 -0.452,0c-1.688,-0.576 -3.712,-0.867 -6.017,-0.867c-9.493,0 -15.389,5.509 -15.389,14.378c0,3.623 1.414,6.225 3.051,9.238c1.15,2.117 2.34,4.307 3.127,7.054c0.447,1.596 0.837,3.277 1.214,4.903c1.347,5.799 2.619,11.276 5.916,11.276c1.337,0 3.115,-0.439 3.115,-4.234c0,-3.879 0.9,-8.557 1.771,-13.081c0.158,-0.82 0.313,-1.629 0.46,-2.418c0.357,-1.656 1.734,-2.38 2.966,-2.38z" fill="#472b29"></path><path d="M65.334,32.173c-0.059,0 -0.118,-0.021 -0.166,-0.063c-2.046,-1.81 -4.717,-2.814 -7.939,-2.984c-0.138,-0.007 -0.244,-0.125 -0.236,-0.263c0.008,-0.138 0.129,-0.256 0.263,-0.236c3.291,0.174 6.142,1.249 8.244,3.109c0.104,0.091 0.113,0.25 0.021,0.353c-0.049,0.056 -0.118,0.084 -0.187,0.084zM58.188,71.084c-0.646,0 -1.046,-0.329 -1.046,-1.968c0,-0.138 0.112,-0.25 0.25,-0.25c0.138,0 0.25,0.112 0.25,0.25c0,1.354 0.258,1.459 0.489,1.468c1.104,-0.624 2.398,-6.477 2.955,-8.995c0.368,-1.664 0.747,-3.38 1.191,-5.033c0.857,-3.155 2.264,-5.639 3.504,-7.831c1.528,-2.7 2.735,-4.832 2.735,-7.617c0.014,-1.275 -0.122,-2.483 -0.406,-3.593c-0.034,-0.134 0.046,-0.27 0.18,-0.304c0.137,-0.035 0.27,0.046 0.304,0.18c0.294,1.153 0.436,2.404 0.421,3.72c0,2.913 -1.236,5.096 -2.8,7.86c-1.226,2.166 -2.616,4.621 -3.457,7.715c-0.441,1.641 -0.819,3.352 -1.185,5.006c-0.982,4.443 -2.044,8.823 -3.286,9.37c-0.03,0.015 -0.064,0.022 -0.099,0.022zM43.29,60.536c-0.012,0 -0.024,-0.001 -0.036,-0.002c-0.136,-0.02 -0.231,-0.146 -0.212,-0.283c0.227,-1.583 0.508,-3.302 0.86,-5.254c0.107,-0.594 0.215,-1.174 0.32,-1.735l0.015,-0.077c0.583,-2.682 2.959,-4.527 5.798,-4.527c0.03,0 0.059,0 0.089,0c0.138,0.002 0.249,0.115 0.247,0.253c-0.002,0.137 -0.113,0.247 -0.25,0.247c-0.032,0 -0.057,0 -0.085,0c-2.602,0 -4.777,1.684 -5.307,4.119l-0.016,0.078c-0.105,0.56 -0.212,1.139 -0.319,1.731c-0.351,1.946 -0.631,3.66 -0.857,5.237c-0.018,0.123 -0.125,0.213 -0.247,0.213zM41.674,71.084c-0.138,0 -0.25,-0.112 -0.25,-0.25c0,-0.138 0.111,-0.25 0.25,-0.25c0.305,0 0.62,-0.001 0.62,-1.469c0,-1.077 0.05,-2.272 0.147,-3.554c0.011,-0.138 0.147,-0.234 0.269,-0.23c0.138,0.011 0.241,0.131 0.23,0.269c-0.097,1.269 -0.146,2.452 -0.146,3.516c-0.001,1.645 -0.411,1.967 -1.12,1.968z" fill="#472b29"></path><path d="M48.944,54.437c0.001,0.006 0.002,0.012 0.003,0.018c-0.001,-0.006 -0.002,-0.012 -0.003,-0.018z" fill="#f7931e"></path><path d="M54.598,32.041c-0.2,0 -0.398,-0.085 -0.537,-0.25c-2.636,-3.143 -6.343,-5.04 -10.44,-5.342c-0.385,-0.029 -0.675,-0.364 -0.646,-0.75c0.029,-0.386 0.371,-0.674 0.75,-0.646c4.477,0.331 8.528,2.404 11.409,5.839c0.249,0.296 0.21,0.738 -0.086,0.986c-0.132,0.109 -0.292,0.163 -0.45,0.163zM52.295,33.883c-0.076,0 -0.15,-0.034 -0.2,-0.099c-1.919,-2.541 -5.213,-4.328 -8.595,-4.663c-2.222,-0.221 -5.493,0.072 -8.469,2.712c-0.104,0.09 -0.261,0.082 -0.353,-0.021c-0.092,-0.104 -0.082,-0.261 0.021,-0.353c3.11,-2.761 6.526,-3.067 8.85,-2.835c3.516,0.349 6.943,2.211 8.944,4.859c0.083,0.11 0.062,0.267 -0.048,0.35c-0.045,0.034 -0.097,0.05 -0.15,0.05z" fill="#472b29"></path><g fill="#472b29"><path d="M37.309,36.807c-1.39838,0 -2.532,1.12511 -2.532,2.513c0,1.38789 1.13362,2.513 2.532,2.513c1.39838,0 2.532,-1.12511 2.532,-2.513c0,-1.38789 -1.13362,-2.513 -2.532,-2.513z"></path></g></g></g></g></svg>