<svg xmlns="http://www.w3.org/2000/svg" xmlns:xlink="http://www.w3.org/1999/xlink" viewBox="0,0,256,256" width="64px" height="64px" fill-rule="nonzero"><g transform=""><g fill="none" fill-rule="nonzero" stroke="none" stroke-width="1" stroke-linecap="butt" stroke-linejoin="miter" stroke-miterlimit="10" stroke-dasharray="" stroke-dashoffset="0" font-family="none" font-weight="none" font-size="none" text-anchor="none" style="mix-blend-mode: normal"><g transform="scale(0.49231,0.49231)"><rect x="167.5" y="377.5" width="20" height="65" fill="#89c3b2"></rect><rect x="87.5" y="377.5" width="20" height="65" fill="#89c3b2"></rect><rect x="147.5" y="377.5" width="20" height="65" fill="#ecf0f1"></rect><rect x="127.5" y="377.5" width="20" height="65" fill="#89c3b2"></rect><rect x="107.5" y="377.5" width="20" height="65" fill="#ecf0f1"></rect><rect x="67.5" y="377.5" width="20" height="65" fill="#ecf0f1"></rect><path d="M462.5,442.5c8.28,0 15,6.72 15,15c0,8.28 -6.72,15 -15,15h-155c6.91,0 13.149,-2.8 17.68,-7.32c4.521,-4.52 7.32,-10.779 7.32,-17.68c0,-1.71 -0.17,-3.38 -0.5,-5z" fill="#5e6b75"></path><path d="M262.5,472.5h-205c-8.29,0 -15,-6.72 -15,-15c0,-8.28 6.71,-15 15,-15h10h20h20h20h20h20h20h50.5c-0.33,1.62 -0.5,3.29 -0.5,5c0,13.81 11.189,25 25,25z" fill="#5e6b75"></path><path d="M332,442.5c0.33,1.62 0.5,3.29 0.5,5c0,6.9 -2.8,13.16 -7.32,17.68c-4.53,4.521 -10.77,7.32 -17.68,7.32h-45c-13.811,0 -25,-11.19 -25,-25c0,-1.71 0.17,-3.38 0.5,-5c0.99,-4.9 3.42,-9.28 6.82,-12.68c4.529,-4.521 10.77,-7.32 17.68,-7.32h45c12.1,0 22.18,8.59 24.5,20z" fill="#c6f9de"></path><path d="M427.5,357.5c11.04,0 20,8.95 20,20c0,11.05 -8.96,20 -20,20c-11.05,0 -20,-8.95 -20,-20c0,-11.05 8.95,-20 20,-20z" fill="#68ca44"></path><circle cx="112.5" cy="167.5" r="35" fill="#68ca44"></circle><path d="M201.64,343.36c3.62,3.62 5.86,8.62 5.86,14.14c0,11.05 -8.96,20 -20,20h-20h-20h-20h-20h-20h-20c-5.53,0 -10.53,-2.24 -14.14,-5.86c-3.62,-3.62 -5.86,-8.62 -5.86,-14.14c0,-5.52 2.24,-10.52 5.86,-14.14c3.609,-3.62 8.609,-5.86 14.14,-5.86c5.14,0 9.62,-3.5 10.87,-8.49l4.13,-16.51l9.399,18.8c1.9,3.8 5.78,6.2 10.03,6.2h85.57c5.521,0 10.521,2.24 14.141,5.86z" fill="#97e4f9"></path><path d="M330.08,81.46c0.979,-0.14 2.28,-0.93 7.47,-2.3c88.93,-23.28 126.71,41.75 85.86,117.57c-3.021,5.66 -5.05,10.62 -6.681,17.08c-4.46,17.65 -1.779,39.43 -5.01,58.44c-3.05,18.03 -9.689,42.76 -27.6,51.65c-14.73,7.319 -29.19,4.029 -32.05,-15.011c-2.061,-13.51 -0.58,-31.93 -3.261,-50.229c-1.229,-8.31 -4.609,-19.78 -8.609,-27.07c-0.021,-0.04 -0.051,-0.08 -0.07,-0.12c-4.34,-7.81 -15.76,-7.81 -20.1,0c-0.021,0.04 -0.04,0.08 -0.07,0.12c-3.99,7.29 -7.38,18.76 -8.61,27.07c-2.68,18.3 -1.2,36.72 -3.26,50.229c-2.86,19.04 -17.32,22.33 -32.05,15.011c-17.91,-8.891 -24.55,-33.62 -27.601,-51.65c-3.229,-19.01 -0.55,-40.79 -5.01,-58.44c-1.63,-6.46 -3.66,-11.42 -6.68,-17.08c-35.11,-65.17 -12.13,-122.37 51.49,-122.37c10.399,0 21.88,1.53 34.37,4.8c5.652,1.73 6.352,2.45 7.472,2.3z" fill="#e4f4fe"></path><circle cx="460" cy="75" r="7.5" fill="#000000"></circle><circle cx="460" cy="290" r="7.5" fill="#000000"></circle><circle cx="370" cy="390" r="7.5" fill="#000000"></circle><circle cx="255" cy="370" r="7.5" fill="#000000"></circle><circle cx="210" cy="205" r="7.5" fill="#000000"></circle><circle cx="160" cy="50" r="7.5" fill="#000000"></circle><circle cx="140" cy="275" r="7.5" fill="#000000"></circle><circle cx="50" cy="300" r="7.5" fill="#000000"></circle><circle cx="45" cy="122.5" r="7.5" fill="#000000"></circle><path d="M67.5,447.5c-2.762,0 -5,-2.238 -5,-5v-65c0,-2.762 2.238,-5 5,-5c2.761,0 5,2.238 5,5v65c0,2.762 -2.239,5 -5,5z" fill="#000000"></path><path d="M87.5,447.5c-2.762,0 -5,-2.238 -5,-5v-65c0,-2.762 2.238,-5 5,-5c2.761,0 5,2.238 5,5v65c0,2.762 -2.239,5 -5,5z" fill="#000000"></path><path d="M107.5,447.5c-2.762,0 -5,-2.238 -5,-5v-65c0,-2.762 2.238,-5 5,-5c2.761,0 5,2.238 5,5v65c0,2.762 -2.239,5 -5,5z" fill="#000000"></path><path d="M127.5,447.5c-2.762,0 -5,-2.238 -5,-5v-65c0,-2.762 2.238,-5 5,-5c2.761,0 5,2.238 5,5v65c0,2.762 -2.239,5 -5,5z" fill="#000000"></path><path d="M147.5,447.5c-2.762,0 -5,-2.238 -5,-5v-65c0,-2.762 2.238,-5 5,-5c2.761,0 5,2.238 5,5v65c0,2.762 -2.239,5 -5,5z" fill="#000000"></path><path d="M187.5,447.5c-2.762,0 -5,-2.238 -5,-5v-65c0,-2.762 2.238,-5 5,-5c2.761,0 5,2.238 5,5v65c0,2.762 -2.239,5 -5,5z" fill="#000000"></path><path d="M167.5,447.5c-2.762,0 -5,-2.238 -5,-5v-65c0,-2.762 2.238,-5 5,-5c2.761,0 5,2.238 5,5v65c0,2.762 -2.239,5 -5,5z" fill="#000000"></path><path d="M262.5,477.5h-205c-11.028,0 -20,-8.972 -20,-20c0,-11.028 8.972,-20 20,-20h180.5c2.761,0 5,2.238 5,5c0,2.762 -2.239,5 -5,5h-180.5c-5.515,0 -10,4.486 -10,10c0,5.514 4.485,10 10,10h205c2.761,0 5,2.238 5,5c0,2.762 -2.239,5 -5,5z" fill="#000000"></path><path d="M462.5,477.5h-155c-2.762,0 -5,-2.238 -5,-5c0,-2.762 2.238,-5 5,-5h155c5.514,0 10,-4.486 10,-10c0,-5.514 -4.486,-10 -10,-10h-130.5c-2.762,0 -5,-2.238 -5,-5c0,-2.762 2.238,-5 5,-5h130.5c11.027,0 20,8.972 20,20c0,11.028 -8.973,20 -20,20z" fill="#000000"></path><path d="M187.5,382.5h-120c-6.688,0 -12.967,-2.604 -17.681,-7.33c-4.718,-4.718 -7.319,-10.995 -7.319,-17.67c0,-6.675 2.602,-12.952 7.324,-17.675c4.709,-4.722 10.987,-7.325 17.676,-7.325c2.851,0 5.326,-1.935 6.02,-4.705l4.13,-16.508c0.508,-2.03 2.226,-3.529 4.305,-3.757c2.078,-0.236 4.082,0.862 5.018,2.733l9.4,18.8c1.06,2.12 3.189,3.437 5.558,3.437h85.57c6.675,0 12.952,2.602 17.676,7.325c4.723,4.723 7.324,11 7.324,17.675c-0.001,13.785 -11.216,25 -25.001,25zM84.071,326.823l-0.851,3.399c-1.811,7.23 -8.275,12.278 -15.72,12.278c-4.012,0 -7.775,1.56 -10.6,4.391c-2.84,2.84 -4.4,6.605 -4.4,10.609c0,4.004 1.561,7.77 4.396,10.604c2.829,2.836 6.593,4.396 10.604,4.396h120c8.271,0 15,-6.729 15,-15c0,-4.004 -1.562,-7.77 -4.396,-10.604c-2.835,-2.834 -6.601,-4.396 -10.604,-4.396h-85.57c-6.18,0 -11.736,-3.435 -14.502,-8.964z" fill="#000000"></path><path d="M350.52,121.33c-2.761,0 -5,-2.239 -5,-5c0,-12.441 -9.19,-24.418 -18.299,-30.769c-2.266,-1.579 -2.821,-4.696 -1.242,-6.961c1.579,-2.265 4.697,-2.821 6.961,-1.242c11.239,7.836 22.58,22.925 22.58,38.972c0,2.761 -2.239,5 -5,5z" fill="#000000"></path><path d="M370.429,332.499v0c-12.441,0 -21.152,-8.549 -23.303,-22.866c-1.011,-6.626 -1.205,-14.241 -1.41,-22.304c-0.231,-9.1 -0.472,-18.51 -1.854,-27.944c-1.076,-7.271 -4.171,-18.292 -8.009,-25.321c-0.036,-0.062 -0.071,-0.123 -0.104,-0.184c-1.146,-2.046 -3.264,-3.267 -5.669,-3.267c-2.393,0 -4.501,1.208 -5.65,3.235c-0.045,0.083 -0.098,0.179 -0.16,0.283c-3.825,7.06 -6.902,18.026 -7.974,25.262c-1.381,9.428 -1.62,18.838 -1.853,27.938c-0.205,8.062 -0.398,15.676 -1.41,22.313c-2.149,14.308 -10.861,22.855 -23.302,22.855c-5.059,0 -10.413,-1.387 -15.917,-4.121c-15.389,-7.64 -25.303,-25.727 -30.305,-55.294c-1.519,-8.939 -1.779,-18.396 -2.031,-27.543c-0.303,-10.991 -0.588,-21.372 -2.896,-30.506c-1.444,-5.726 -3.253,-10.347 -6.243,-15.952c-19.877,-36.894 -22.556,-72.679 -7.339,-98.16c12.154,-20.354 34.613,-31.563 63.24,-31.563c11.066,0 23.057,1.67 35.636,4.963c0.066,0.017 0.133,0.036 0.198,0.056c2.671,0.818 4.297,1.423 5.373,1.823c0.127,0.047 0.242,0.091 0.349,0.131c0.041,-0.015 0.085,-0.031 0.13,-0.047c1.123,-0.403 3.003,-1.078 6.349,-1.961c12.584,-3.294 24.574,-4.963 35.647,-4.963c28.625,0 51.084,11.21 63.238,31.564c15.216,25.482 12.537,61.266 -7.349,98.175c-2.979,5.585 -4.789,10.207 -6.233,15.932c-2.309,9.136 -2.595,19.517 -2.897,30.507c-0.252,9.146 -0.512,18.604 -2.031,27.547c-5.002,29.563 -14.915,47.65 -30.307,55.291c-5.501,2.734 -10.857,4.121 -15.914,4.121zM344.594,229.204c4.622,8.433 7.989,20.798 9.162,28.724c1.47,10.037 1.729,20.189 1.957,29.146c0.197,7.738 0.383,15.048 1.3,21.062c1.433,9.534 5.945,14.363 13.416,14.363c3.45,0 7.415,-1.063 11.466,-3.076c12.151,-6.032 20.526,-22.184 24.896,-48.007c1.402,-8.251 1.652,-17.351 1.895,-26.15c0.305,-11.05 0.619,-22.476 3.197,-32.681c1.657,-6.565 3.719,-11.84 7.117,-18.208c17.917,-33.256 20.745,-66.267 7.575,-88.323c-10.278,-17.212 -29.688,-26.691 -54.652,-26.691c-10.219,0 -21.357,1.56 -33.105,4.635c-2.917,0.77 -4.479,1.331 -5.512,1.702c-0.873,0.313 -1.626,0.583 -2.518,0.711c-0.365,0.049 -0.677,0.069 -0.989,0.069c-1.407,0 -2.479,-0.399 -3.838,-0.904c-0.952,-0.354 -2.386,-0.888 -4.717,-1.604c-11.716,-3.06 -22.819,-4.611 -33.003,-4.611c-24.967,0 -44.377,9.479 -54.654,26.69c-13.171,22.055 -10.343,55.068 7.565,88.308c3.408,6.388 5.471,11.664 7.127,18.229c2.578,10.203 2.893,21.629 3.196,32.679c0.242,8.8 0.493,17.899 1.895,26.146c4.369,25.827 12.744,41.979 24.894,48.01c4.053,2.014 8.018,3.077 11.469,3.077c7.47,0 11.983,-4.828 13.414,-14.353c0.918,-6.023 1.104,-13.332 1.302,-21.07c0.228,-8.958 0.486,-19.11 1.955,-29.141c1.172,-7.918 4.541,-20.286 9.171,-28.746c0.035,-0.063 0.071,-0.126 0.108,-0.188c2.938,-5.254 8.316,-8.389 14.398,-8.389c6.074,0 11.448,3.127 14.388,8.37c0.043,0.074 0.085,0.147 0.125,0.221z" fill="#000000"></path><path d="M261.346,193.271c-2.233,0 -4.269,-1.508 -4.843,-3.772c-0.903,-3.565 -2.03,-6.446 -3.889,-9.943c-14.387,-26.699 -15.04,-52.759 -1.731,-69.685c12.512,-15.914 35.491,-20.902 63.044,-13.688c2.671,0.699 4.27,3.432 3.57,6.104c-0.7,2.672 -3.432,4.27 -6.104,3.57c-23.521,-6.159 -42.713,-2.444 -52.65,10.195c-10.771,13.698 -9.766,35.674 2.688,58.786c2.273,4.28 3.65,7.808 4.765,12.203c0.679,2.677 -0.94,5.397 -3.617,6.076c-0.412,0.104 -0.826,0.154 -1.233,0.154z" fill="#000000"></path><path d="M427.5,402.5c-13.785,0 -25,-11.215 -25,-25c0,-13.785 11.215,-25 25,-25c13.785,0 25,11.215 25,25c0,13.785 -11.215,25 -25,25zM427.5,362.5c-8.271,0 -15,6.729 -15,15c0,8.271 6.729,15 15,15c8.271,0 15,-6.729 15,-15c0,-8.271 -6.729,-15 -15,-15z" fill="#000000"></path><path d="M112.5,207.5c-22.057,0 -40,-17.944 -40,-40c0,-22.056 17.943,-40 40,-40c22.056,0 40,17.944 40,40c0,22.056 -17.944,40 -40,40zM112.5,137.5c-16.542,0 -30,13.458 -30,30c0,16.542 13.458,30 30,30c16.542,0 30,-13.458 30,-30c0,-16.542 -13.458,-30 -30,-30z" fill="#000000"></path><path d="M307.5,477.5h-45c-16.542,0 -30,-13.458 -30,-30c0,-2.023 0.202,-4.042 0.601,-5.998c1.165,-5.765 3.995,-11.03 8.185,-15.218c5.677,-5.666 13.21,-8.784 21.215,-8.784h45c14.207,0 26.571,10.095 29.399,24.004c0.398,1.954 0.601,3.973 0.601,5.996c0,8.017 -3.12,15.552 -8.785,21.216c-5.679,5.666 -13.212,8.784 -21.216,8.784zM262.5,427.5c-5.337,0 -10.361,2.081 -14.148,5.859c-2.789,2.789 -4.676,6.293 -5.451,10.131c-0.267,1.309 -0.4,2.655 -0.4,4.01c0,11.028 8.972,20 20,20h45c5.337,0 10.361,-2.081 14.148,-5.859c3.771,-3.772 5.852,-8.795 5.852,-14.141c0,-1.354 -0.135,-2.701 -0.399,-4.002c-1.885,-9.271 -10.128,-15.998 -19.601,-15.998z" fill="#000000"></path></g></g></g></svg>