<svg xmlns="http://www.w3.org/2000/svg" xmlns:xlink="http://www.w3.org/1999/xlink" viewBox="0,0,256,256" width="64px" height="64px" fill-rule="nonzero"><g fill="none" fill-rule="nonzero" stroke="none" stroke-width="1" stroke-linecap="butt" stroke-linejoin="miter" stroke-miterlimit="10" stroke-dasharray="" stroke-dashoffset="0" font-family="none" font-weight="none" font-size="none" text-anchor="none" style="mix-blend-mode: normal"><g transform="scale(2.56,2.56)"><path d="M87.215,56.71c1.135,-2.155 1.785,-4.605 1.785,-7.21c0,-6.621 -4.159,-12.257 -10.001,-14.478c0,-0.007 0.001,-0.014 0.001,-0.022c0,-11.598 -9.402,-21 -21,-21c-9.784,0 -17.981,6.701 -20.313,15.757c-1.476,-0.485 -3.049,-0.757 -4.687,-0.757c-7.692,0 -14.023,5.793 -14.89,13.252c-5.204,1.101 -9.11,5.717 -9.11,11.248c0,6.351 5.149,11.5 11.5,11.5c0.177,0 0.352,-0.012 0.526,-0.022c-0.004,0.175 -0.026,0.346 -0.026,0.522c0,11.322 9.178,20.5 20.5,20.5c6.437,0 12.175,-2.972 15.934,-7.614c2.178,2.225 5.206,3.614 8.566,3.614c4.65,0 8.674,-2.65 10.666,-6.518c1.052,0.335 2.171,0.518 3.334,0.518c6.075,0 11,-4.925 11,-11c0,-3.311 -1.47,-6.273 -3.785,-8.29z" fill="#89c3b2"></path><path d="M72.5,54.375v0.5h3v-0.5c0,0 4.242,0 5.5,0c2.485,0 4.5,-2.015 4.5,-4.5c0,-2.333 -1.782,-4.229 -4.055,-4.455c0.022,-0.181 0.055,-0.358 0.055,-0.545c0,-2.485 -2.015,-4.5 -4.5,-4.5c-1.438,0 -2.703,0.686 -3.527,1.736c-0.14,-2.636 -2.302,-4.736 -4.973,-4.736c-2.761,0 -5,2.239 -5,5c0,0.446 0.077,0.87 0.187,1.282c-0.642,-0.777 -1.6,-1.282 -2.687,-1.282c-1.781,0 -3.234,1.335 -3.455,3.055c-0.181,-0.022 -0.358,-0.055 -0.545,-0.055c-2.485,0 -4.5,2.015 -4.5,4.5c0,2.485 2.015,4.5 4.5,4.5c2.485,0 9.5,0 9.5,0z" fill="#fdfcef"></path><path d="M68.5,36.875c-3.033,0 -5.5,2.467 -5.5,5.5c0,0.016 0,0.031 0,0.047c-0.602,-0.354 -1.29,-0.547 -2,-0.547c-1.831,0 -3.411,1.261 -3.858,3.005c-0.047,-0.003 -0.094,-0.005 -0.142,-0.005c-2.757,0 -5,2.243 -5,5c0,2.757 2.243,5 5,5h15.5c0.276,0 0.5,-0.224 0.5,-0.5c0,-0.276 -0.224,-0.5 -0.5,-0.5h-15.5c-2.206,0 -4,-1.794 -4,-4c0,-2.206 1.794,-4 4,-4c0.117,0 0.23,0.017 0.343,0.032l0.141,0.019c0.021,0.003 0.041,0.004 0.062,0.004c0.246,0 0.462,-0.185 0.495,-0.437c0.191,-1.493 1.463,-2.618 2.959,-2.618c0.885,0 1.723,0.401 2.301,1.1c0.098,0.118 0.241,0.182 0.386,0.182c0.078,0 0.156,-0.018 0.228,-0.056c0.209,-0.107 0.314,-0.346 0.254,-0.573c-0.115,-0.435 -0.169,-0.801 -0.169,-1.153c0,-2.481 2.019,-4.5 4.5,-4.5c2.381,0 4.347,1.872 4.474,4.263c0.011,0.208 0.15,0.387 0.349,0.45c0.05,0.016 0.101,0.024 0.152,0.024c0.15,0 0.296,-0.069 0.392,-0.192c0.771,-0.981 1.913,-1.544 3.133,-1.544c2.206,0 4,1.794 4,4c0,0.117 -0.017,0.23 -0.032,0.343l-0.019,0.141c-0.016,0.134 0.022,0.268 0.106,0.373c0.084,0.105 0.207,0.172 0.34,0.185c2.056,0.204 3.605,1.906 3.605,3.957c0,2.206 -1.794,4 -4,4h-5.5c-0.276,0 -0.5,0.224 -0.5,0.5c0,0.276 0.224,0.5 0.5,0.5h5.5c2.757,0 5,-2.243 5,-5c0,-2.397 -1.689,-4.413 -4.003,-4.877c0.002,-0.041 0.003,-0.082 0.003,-0.123c0,-2.757 -2.243,-5 -5,-5c-1.176,0 -2.293,0.416 -3.183,1.164c-0.598,-2.404 -2.762,-4.164 -5.317,-4.164z" fill="#472b29"></path><path d="M67,43.875c-1.403,0 -2.609,0.999 -2.913,2.341c-0.367,-0.222 -0.786,-0.341 -1.212,-0.341c-1.202,0 -2.198,0.897 -2.353,2.068c-0.203,-0.045 -0.396,-0.068 -0.585,-0.068c-1.529,0 -2.811,1.2 -2.918,2.732c-0.009,0.138 0.094,0.257 0.232,0.267c0.006,0 0.012,0 0.018,0c0.13,0 0.24,-0.101 0.249,-0.232c0.089,-1.271 1.151,-2.268 2.419,-2.268c0.229,0 0.47,0.042 0.738,0.127c0.022,0.007 0.045,0.01 0.067,0.01c0.055,0 0.11,-0.02 0.156,-0.054c0.064,-0.045 0.102,-0.127 0.102,-0.207c0,-1.034 0.841,-1.875 1.875,-1.875c0.447,0 0.885,0.168 1.231,0.473c0.047,0.041 0.106,0.063 0.165,0.063c0.032,0 0.063,-0.006 0.093,-0.019c0.088,-0.035 0.148,-0.117 0.155,-0.212c0.102,-1.292 1.191,-2.305 2.479,-2.305c0.208,0 0.425,0.034 0.682,0.107c0.023,0.007 0.047,0.01 0.07,0.01c0.109,0 0.207,-0.073 0.239,-0.182c0.038,-0.133 -0.039,-0.271 -0.172,-0.309c-0.3,-0.086 -0.561,-0.126 -0.817,-0.126zM80.883,45.375c-1.326,0 -2.508,0.897 -2.874,2.182c-0.038,0.133 0.039,0.271 0.172,0.309c0.023,0.007 0.046,0.01 0.068,0.01c0.109,0 0.209,-0.072 0.24,-0.182c0.305,-1.071 1.289,-1.818 2.393,-1.818c0.117,0 0.23,0.014 0.342,0.029c0.012,0.002 0.023,0.003 0.035,0.003c0.121,0 0.229,-0.092 0.246,-0.217c0.019,-0.137 -0.077,-0.263 -0.214,-0.281c-0.133,-0.019 -0.269,-0.035 -0.408,-0.035z" fill="#472b29"></path><path d="M15.5,51h-10c-0.276,0 -0.5,-0.224 -0.5,-0.5c0,-0.276 0.224,-0.5 0.5,-0.5h10c0.276,0 0.5,0.224 0.5,0.5c0,0.276 -0.223,0.5 -0.5,0.5zM18.5,51h-1c-0.276,0 -0.5,-0.224 -0.5,-0.5c0,-0.276 0.224,-0.5 0.5,-0.5h1c0.276,0 0.5,0.224 0.5,0.5c0,0.276 -0.223,0.5 -0.5,0.5zM23.491,53h-8.991c-0.276,0 -0.5,-0.224 -0.5,-0.5c0,-0.276 0.224,-0.5 0.5,-0.5h8.991c0.276,0 0.5,0.224 0.5,0.5c0,0.276 -0.224,0.5 -0.5,0.5zM12.5,53h-1c-0.276,0 -0.5,-0.224 -0.5,-0.5c0,-0.276 0.224,-0.5 0.5,-0.5h1c0.276,0 0.5,0.224 0.5,0.5c0,0.276 -0.223,0.5 -0.5,0.5zM9.5,53h-2c-0.276,0 -0.5,-0.224 -0.5,-0.5c0,-0.276 0.224,-0.5 0.5,-0.5h2c0.276,0 0.5,0.224 0.5,0.5c0,0.276 -0.223,0.5 -0.5,0.5zM15.5,55h-2c-0.276,0 -0.5,-0.224 -0.5,-0.5c0,-0.276 0.224,-0.5 0.5,-0.5h2c0.276,0 0.5,0.224 0.5,0.5c0,0.276 -0.224,0.5 -0.5,0.5zM18.5,46c-0.177,0 -0.823,0 -1,0c-0.276,0 -0.5,0.224 -0.5,0.5c0,0.276 0.224,0.5 0.5,0.5c0.177,0 0.823,0 1,0c0.276,0 0.5,-0.224 0.5,-0.5c0,-0.276 -0.224,-0.5 -0.5,-0.5zM18.5,48c-0.177,0 -4.823,0 -5,0c-0.276,0 -0.5,0.224 -0.5,0.5c0,0.276 0.224,0.5 0.5,0.5c0.177,0 4.823,0 5,0c0.276,0 0.5,-0.224 0.5,-0.5c0,-0.276 -0.224,-0.5 -0.5,-0.5zM23.5,50c-0.177,0 -2.823,0 -3,0c-0.276,0 -0.5,0.224 -0.5,0.5c0,0.276 0.224,0.5 0.5,0.5c0.177,0 2.823,0 3,0c0.276,0 0.5,-0.224 0.5,-0.5c0,-0.276 -0.224,-0.5 -0.5,-0.5z" fill="#ffffff"></path><g fill="#ffffff"><path d="M73.5,28h-10c-0.276,0 -0.5,-0.224 -0.5,-0.5c0,-0.276 0.224,-0.5 0.5,-0.5h10c0.276,0 0.5,0.224 0.5,0.5c0,0.276 -0.224,0.5 -0.5,0.5zM77.5,28h-2c-0.276,0 -0.5,-0.224 -0.5,-0.5c0,-0.276 0.224,-0.5 0.5,-0.5h2c0.276,0 0.5,0.224 0.5,0.5c0,0.276 -0.224,0.5 -0.5,0.5zM82.5,30h-10c-0.276,0 -0.5,-0.224 -0.5,-0.5c0,-0.276 0.224,-0.5 0.5,-0.5h10c0.276,0 0.5,0.224 0.5,0.5c0,0.276 -0.223,0.5 -0.5,0.5zM70.5,30h-1c-0.276,0 -0.5,-0.224 -0.5,-0.5c0,-0.276 0.224,-0.5 0.5,-0.5h1c0.276,0 0.5,0.224 0.5,0.5c0,0.276 -0.224,0.5 -0.5,0.5zM67.47,30h-1.97c-0.276,0 -0.5,-0.224 -0.5,-0.5c0,-0.276 0.224,-0.5 0.5,-0.5h1.97c0.276,0 0.5,0.224 0.5,0.5c0,0.276 -0.224,0.5 -0.5,0.5zM76.5,26h-5c-0.276,0 -0.5,-0.224 -0.5,-0.5c0,-0.276 0.224,-0.5 0.5,-0.5h5c0.276,0 0.5,0.224 0.5,0.5c0,0.276 -0.223,0.5 -0.5,0.5zM73.5,32h-2c-0.276,0 -0.5,-0.224 -0.5,-0.5c0,-0.276 0.224,-0.5 0.5,-0.5h2c0.276,0 0.5,0.224 0.5,0.5c0,0.276 -0.224,0.5 -0.5,0.5z"></path></g><g><path d="M56.15,31.625c-2.148,0 -4.016,0.277 -5.603,0.832c-1.588,-0.555 -3.455,-0.832 -5.603,-0.832c-9.246,0 -14.443,5.639 -14.443,13.867c0,5.917 3.889,9.152 5.57,15.161c1.867,6.842 2.614,15.347 7.004,15.347c2.335,0 3.425,-1.58 3.425,-4.538c0,-4.16 1.151,-9.514 1.992,-14.136c0.467,-2.219 3.642,-2.219 4.016,0c0.841,4.53 1.993,10.102 1.993,14.262c0,2.958 1.089,4.412 3.424,4.412c4.389,0 5.137,-8.598 7.004,-15.346c1.681,-6.009 5.572,-9.245 5.572,-15.161c0.092,-8.229 -5.106,-13.868 -14.351,-13.868z" fill="#fefdef"></path><path d="M57.924,76.7c-2.736,0 -4.124,-1.72 -4.124,-5.112c0,-3.615 -0.892,-8.35 -1.679,-12.527l-0.302,-1.607c-0.133,-0.792 -0.735,-1.081 -1.254,-1.091c-0.009,0 -0.019,0 -0.029,0c-0.526,0 -1.187,0.288 -1.359,1.108c-0.129,0.708 -0.269,1.454 -0.411,2.21c-0.77,4.1 -1.566,8.34 -1.566,11.782c0,4.33 -2.244,5.239 -4.125,5.239c-4.018,0 -5.274,-5.544 -6.605,-11.414c-0.335,-1.481 -0.683,-3.013 -1.075,-4.448c-0.667,-2.382 -1.7,-4.331 -2.699,-6.214c-1.489,-2.809 -2.896,-5.462 -2.896,-9.132c0,-8.985 5.803,-14.567 15.143,-14.567c2.114,0 3.998,0.267 5.603,0.793c1.605,-0.526 3.489,-0.793 5.604,-0.793c4.688,0 8.571,1.422 11.23,4.111c2.548,2.577 3.869,6.195 3.821,10.464c0,3.662 -1.407,6.314 -2.897,9.124c-1,1.884 -2.033,3.832 -2.7,6.219c-0.398,1.439 -0.751,2.991 -1.093,4.491c-1.331,5.843 -2.587,11.364 -6.587,11.364zM50.533,54.961c0.02,0 0.04,0 0.06,0.001c1.336,0.027 2.383,0.93 2.605,2.247l0.298,1.592c0.799,4.238 1.704,9.041 1.704,12.787c0,3.271 1.377,3.712 2.724,3.712c2.883,0 4.019,-4.992 5.221,-10.277c0.345,-1.516 0.701,-3.083 1.108,-4.555c0.709,-2.534 1.778,-4.55 2.813,-6.5c1.467,-2.766 2.734,-5.154 2.734,-8.475c0.044,-3.895 -1.137,-7.167 -3.416,-9.472c-2.39,-2.417 -5.929,-3.695 -10.234,-3.695c-2.059,0 -3.867,0.267 -5.373,0.792c-0.149,0.053 -0.313,0.053 -0.462,0c-1.505,-0.526 -3.313,-0.792 -5.372,-0.792c-8.477,0 -13.743,5.045 -13.743,13.167c0,3.321 1.267,5.71 2.733,8.476c1.034,1.95 2.103,3.966 2.811,6.498c0.401,1.469 0.751,3.016 1.091,4.512c1.203,5.309 2.34,10.323 5.239,10.323c1.17,0 2.725,-0.398 2.725,-3.838c0,-3.572 0.809,-7.877 1.59,-12.04c0.142,-0.753 0.281,-1.496 0.413,-2.221c0.281,-1.336 1.398,-2.242 2.731,-2.242z" fill="#472b29"></path><path d="M64.293,37.552c-0.06,0 -0.12,-0.021 -0.168,-0.065c-1.831,-1.66 -4.223,-2.581 -7.109,-2.738c-0.138,-0.007 -0.244,-0.125 -0.236,-0.263c0.007,-0.138 0.114,-0.244 0.263,-0.236c2.961,0.161 5.526,1.152 7.417,2.867c0.102,0.093 0.11,0.25 0.017,0.353c-0.048,0.054 -0.116,0.082 -0.184,0.082zM57.878,73.338c-0.595,0 -0.964,-0.306 -0.964,-1.83c0,-0.138 0.112,-0.25 0.25,-0.25c0.138,0 0.25,0.112 0.25,0.25c0,1.207 0.212,1.318 0.406,1.329c0.98,-0.586 2.137,-5.949 2.635,-8.259c0.333,-1.543 0.673,-3.118 1.069,-4.626c0.77,-2.9 2.032,-5.186 3.146,-7.202c1.373,-2.484 2.455,-4.444 2.455,-7c0.013,-1.17 -0.109,-2.28 -0.364,-3.301c-0.033,-0.134 0.048,-0.27 0.182,-0.303c0.134,-0.033 0.27,0.048 0.303,0.182c0.264,1.063 0.392,2.215 0.378,3.425c0,2.683 -1.11,4.692 -2.516,7.236c-1.102,1.994 -2.348,4.251 -3.102,7.091c-0.393,1.497 -0.731,3.066 -1.059,4.583c-0.886,4.11 -1.841,8.145 -2.967,8.653c-0.031,0.015 -0.066,0.022 -0.102,0.022zM44.505,63.637c-0.012,0 -0.023,-0.001 -0.035,-0.002c-0.137,-0.019 -0.232,-0.146 -0.213,-0.282c0.207,-1.477 0.459,-3.058 0.772,-4.833c0.096,-0.546 0.192,-1.08 0.287,-1.596l0.017,-0.083c0.528,-2.491 2.711,-4.213 5.307,-4.167c0.138,0.002 0.249,0.115 0.247,0.253c-0.002,0.137 -0.113,0.247 -0.25,0.247c-0.028,0.006 -0.052,0 -0.078,0c-2.322,0 -4.264,1.542 -4.737,3.771l-0.015,0.072c-0.094,0.514 -0.19,1.046 -0.286,1.592c-0.312,1.769 -0.563,3.344 -0.77,4.815c-0.016,0.123 -0.123,0.213 -0.246,0.213zM43.055,73.339c-0.138,0 -0.25,-0.112 -0.25,-0.25c0,-0.138 0.111,-0.25 0.25,-0.25c0.261,0 0.531,0 0.531,-1.331c0,-0.998 0.045,-2.098 0.133,-3.271c0.011,-0.138 0.136,-0.239 0.268,-0.231c0.138,0.011 0.241,0.13 0.231,0.268c-0.087,1.16 -0.132,2.248 -0.132,3.233c-0.001,1.524 -0.395,1.831 -1.031,1.832z" fill="#472b29"></path><path d="M49.58,58.008c0.001,0.005 0.002,0.011 0.003,0.017c-0.001,-0.006 -0.002,-0.012 -0.003,-0.017z" fill="#f7931e"></path><path d="M54.656,37.467c-0.203,0 -0.404,-0.088 -0.542,-0.257c-2.354,-2.875 -5.663,-4.61 -9.317,-4.887c-0.386,-0.029 -0.674,-0.366 -0.646,-0.751c0.029,-0.386 0.371,-0.664 0.751,-0.646c4.041,0.306 7.697,2.223 10.295,5.396c0.245,0.299 0.201,0.74 -0.098,0.985c-0.13,0.108 -0.287,0.16 -0.443,0.16z" fill="#472b29"></path><g fill="#472b29"><path d="M52.589,39.125c-0.076,0 -0.151,-0.035 -0.2,-0.1c-1.722,-2.304 -4.677,-3.922 -7.71,-4.223c-1.985,-0.195 -4.908,0.069 -7.568,2.456c-0.104,0.091 -0.262,0.083 -0.353,-0.019c-0.092,-0.103 -0.083,-0.261 0.019,-0.353c2.795,-2.509 5.868,-2.79 7.952,-2.581c3.168,0.314 6.257,2.008 8.061,4.421c0.083,0.111 0.06,0.268 -0.05,0.35c-0.046,0.033 -0.099,0.049 -0.151,0.049z"></path></g></g><g fill="#472b29"><path d="M39.5,42c-1.38071,0 -2.5,1.11929 -2.5,2.5c0,1.38071 1.11929,2.5 2.5,2.5c1.38071,0 2.5,-1.11929 2.5,-2.5c0,-1.38071 -1.11929,-2.5 -2.5,-2.5z"></path></g><g><path d="M34.5,71.5c0,0 1.567,0 3.5,0c1.933,0 3.5,-1.567 3.5,-3.5c0,-1.781 -1.335,-3.234 -3.055,-3.455c0.028,-0.179 0.055,-0.358 0.055,-0.545c0,-1.933 -1.567,-3.5 -3.5,-3.5c-1.032,0 -1.95,0.455 -2.59,1.165c-0.384,-1.808 -1.987,-3.165 -3.91,-3.165c-2.209,0 -4,1.791 -4,4c0,0.191 0.03,0.374 0.056,0.558c-0.428,-0.344 -0.964,-0.558 -1.556,-0.558c-1.228,0 -2.245,0.887 -2.455,2.055c-0.179,-0.028 -0.358,-0.055 -0.545,-0.055c-1.933,0 -3.5,1.567 -3.5,3.5c0,1.933 1.567,3.5 3.5,3.5c1.933,0 7.5,0 7.5,0v0.5h7z" fill="#fdfcef"></path><path d="M36.25,67c-0.138,0 -0.25,-0.112 -0.25,-0.25c0,-1.223 0.995,-2.218 2.218,-2.218c0.034,0.009 0.737,-0.001 1.244,0.136c0.133,0.036 0.212,0.173 0.176,0.306c-0.036,0.134 -0.173,0.213 -0.306,0.176c-0.444,-0.12 -1.1,-0.12 -1.113,-0.118c-0.948,0 -1.719,0.771 -1.719,1.718c0,0.138 -0.112,0.25 -0.25,0.25zM29.5,71c-0.27614,0 -0.5,0.22386 -0.5,0.5c0,0.27614 0.22386,0.5 0.5,0.5c0.27614,0 0.5,-0.22386 0.5,-0.5c0,-0.27614 -0.22386,-0.5 -0.5,-0.5z" fill="#472b29"></path><path d="M38,72h-3.5c-0.276,0 -0.5,-0.224 -0.5,-0.5c0,-0.276 0.224,-0.5 0.5,-0.5h3.5c1.654,0 3,-1.346 3,-3c0,-1.496 -1.125,-2.768 -2.618,-2.959c-0.134,-0.018 -0.255,-0.088 -0.336,-0.196c-0.081,-0.108 -0.115,-0.244 -0.094,-0.377c0.023,-0.154 0.048,-0.308 0.048,-0.468c0,-1.654 -1.346,-3 -3,-3c-0.85,0 -1.638,0.355 -2.219,1c-0.125,0.139 -0.321,0.198 -0.5,0.148c-0.182,-0.049 -0.321,-0.195 -0.36,-0.379c-0.341,-1.604 -1.78,-2.769 -3.421,-2.769c-1.93,0 -3.5,1.57 -3.5,3.5c0,0.143 0.021,0.28 0.041,0.418c0.029,0.203 -0.063,0.438 -0.242,0.54c-0.179,0.102 -0.396,0.118 -0.556,-0.01c-0.365,-0.293 -0.794,-0.448 -1.243,-0.448c-0.966,0 -1.792,0.691 -1.963,1.644c-0.048,0.267 -0.296,0.446 -0.569,0.405c-0.154,-0.024 -0.308,-0.049 -0.468,-0.049c-1.654,0 -3,1.346 -3,3c0,1.654 1.346,3 3,3h7.5c0.276,0 0.5,0.224 0.5,0.5c0,0.276 -0.224,0.5 -0.5,0.5h-7.5c-2.206,0 -4,-1.794 -4,-4c0,-2.206 1.794,-4 4,-4c0.059,0 0.116,0.002 0.174,0.006c0.414,-1.186 1.537,-2.006 2.826,-2.006c0.349,0 0.689,0.061 1.011,0.18c0.165,-2.333 2.115,-4.18 4.489,-4.18c1.831,0 3.466,1.127 4.153,2.774c0.68,-0.498 1.502,-0.774 2.347,-0.774c2.206,0 4,1.794 4,4c0,0.048 -0.001,0.095 -0.004,0.142c1.743,0.448 3.004,2.027 3.004,3.858c0,2.206 -1.794,4 -4,4z" fill="#472b29"></path><path d="M32.5,71c-0.159,0 -0.841,0 -1,0c-0.276,0 -0.5,0.224 -0.5,0.5c0,0.276 0.224,0.5 0.5,0.5c0.159,0 0.841,0 1,0c0.276,0 0.5,-0.224 0.5,-0.5c0,-0.276 -0.224,-0.5 -0.5,-0.5z" fill="#472b29"></path></g><g fill="#472b29"><path d="M66.45,40.902c-0.098,0 -0.19,-0.058 -0.23,-0.154c-0.277,-0.662 -0.629,-1.285 -1.045,-1.85c-0.082,-0.111 -0.058,-0.268 0.053,-0.35c0.112,-0.082 0.268,-0.059 0.35,0.053c0.44,0.598 0.812,1.255 1.104,1.955c0.053,0.127 -0.007,0.273 -0.134,0.327c-0.033,0.013 -0.066,0.019 -0.098,0.019z"></path></g></g></g></svg>