<svg xmlns="http://www.w3.org/2000/svg" xmlns:xlink="http://www.w3.org/1999/xlink" viewBox="0,0,256,256" width="20px" height="20px" fill-rule="nonzero"><g fill="none" fill-rule="nonzero" stroke="none" stroke-width="1" stroke-linecap="butt" stroke-linejoin="miter" stroke-miterlimit="10" stroke-dasharray="" stroke-dashoffset="0" font-family="none" font-weight="none" font-size="none" text-anchor="none" style="mix-blend-mode: normal"><g transform="scale(4,4)"><path d="M33,55c-12.682,0 -23,-10.317 -23,-23c0,-1.381 1.119,-2.5 2.5,-2.5c1.381,0 2.5,1.119 2.5,2.5c0,9.925 8.075,18 18,18c9.925,0 18,-8.075 18,-18c0,-9.925 -8.075,-18 -18,-18c-1.381,0 -2.5,-1.119 -2.5,-2.5c0,-1.381 1.119,-2.5 2.5,-2.5c12.682,0 23,10.317 23,23c0,12.683 -10.318,23 -23,23z" fill="#89c3b2"></path><ellipse cx="32" cy="61" rx="19" ry="3" fill="#000000" opacity="0.3"></ellipse><path d="M26.699,18.847l-7.09,0.202c-1.019,0.029 -1.793,-0.909 -1.57,-1.904l1.549,-6.922c0.284,-1.27 1.904,-1.657 2.732,-0.653l5.541,6.719c0.827,1.004 0.138,2.521 -1.162,2.558z" fill="#89c3b2"></path><path d="M35.96,9.186c-4.829,-0.607 -9.398,0.297 -13.324,2.291c-1.474,0.748 -1.762,2.739 -0.593,3.908l0.043,0.043c0.778,0.778 1.945,0.947 2.917,0.461c3.27,-1.634 7.097,-2.312 11.137,-1.619c7.58,1.3 13.595,7.482 14.674,15.097c1.66,11.707 -7.956,21.649 -19.568,20.55c-0.921,-0.087 -1.824,-0.246 -2.701,-0.471c-1.099,-0.281 -2.243,0.264 -2.772,1.268v0c-0.742,1.409 -0.002,3.173 1.539,3.572c1.085,0.281 2.2,0.484 3.34,0.597c14.444,1.432 26.501,-10.512 25.261,-24.922c-0.92,-10.676 -9.321,-19.438 -19.953,-20.775z" fill="#89c3b2"></path><path d="M55.99,31.839c-2.504,-0.248 -4.848,1.397 -5.382,3.915c-0.02,0.096 -0.049,0.19 -0.071,0.286c-0.058,0.254 -0.118,0.507 -0.187,0.756c-0.041,0.148 -0.088,0.294 -0.132,0.441c-0.063,0.207 -0.127,0.414 -0.197,0.618c-0.052,0.151 -0.107,0.3 -0.163,0.449c-0.074,0.198 -0.151,0.395 -0.232,0.59c-0.06,0.144 -0.121,0.288 -0.184,0.43c-0.09,0.202 -0.185,0.4 -0.282,0.598c-0.063,0.129 -0.125,0.259 -0.192,0.386c-0.119,0.228 -0.245,0.452 -0.374,0.675c-0.052,0.091 -0.101,0.184 -0.155,0.273c-0.186,0.31 -0.381,0.614 -0.585,0.911c-0.047,0.068 -0.098,0.133 -0.146,0.201c-0.161,0.228 -0.325,0.454 -0.497,0.674c-0.081,0.104 -0.166,0.205 -0.249,0.307c-0.146,0.179 -0.293,0.356 -0.445,0.529c-0.096,0.109 -0.195,0.217 -0.293,0.324c-0.148,0.16 -0.298,0.317 -0.452,0.472c-0.105,0.106 -0.211,0.212 -0.319,0.316c-0.158,0.152 -0.321,0.299 -0.484,0.445c-0.108,0.097 -0.215,0.195 -0.326,0.289c-0.19,0.161 -0.385,0.316 -0.582,0.469c-0.09,0.07 -0.176,0.143 -0.267,0.212c-0.279,0.21 -0.565,0.41 -0.856,0.604c-0.122,0.081 -0.248,0.155 -0.371,0.233c-0.183,0.115 -0.366,0.23 -0.553,0.338c-0.142,0.082 -0.287,0.16 -0.431,0.239c-0.177,0.096 -0.354,0.19 -0.534,0.28c-0.15,0.075 -0.302,0.148 -0.454,0.219c-0.184,0.086 -0.37,0.167 -0.557,0.247c-0.151,0.064 -0.302,0.129 -0.456,0.189c-0.205,0.081 -0.413,0.155 -0.622,0.228c-0.111,0.039 -0.22,0.085 -0.332,0.122c-2.445,0.804 -3.825,3.311 -3.308,5.772c11.664,-1.171 20.752,-11.047 20.67,-23.037z" fill="#000000" opacity="0.15"></path><path d="M19.612,19.05l3.079,-0.088c0.091,-0.234 0.173,-0.473 0.23,-0.725l0.175,-0.781c0.163,-0.727 0.706,-1.344 1.436,-1.495c0.367,-0.076 0.729,-0.196 1.081,-0.356c1.979,-0.9 4.056,-1.419 6.197,-1.56c0.057,-0.004 0.115,-0.006 0.172,-0.009c0.269,-0.015 0.538,-0.026 0.809,-0.029c0.122,-0.002 0.244,0 0.367,0.001c0.137,0.001 0.274,-0.003 0.411,0.001c2.588,0.038 4.724,-1.81 5.078,-4.292c-1.585,-0.407 -3.232,-0.653 -4.925,-0.706c-3.64,-0.111 -7.088,0.639 -10.177,2.042l-1.222,-1.482c-0.828,-1.004 -2.448,-0.616 -2.732,0.653l-1.549,6.922c-0.223,0.994 0.551,1.933 1.57,1.904z" fill="#ffffff" opacity="0.3"></path><path d="M26.427,13.961c-0.625,0 -1.208,-0.393 -1.42,-1.017c-0.267,-0.784 0.152,-1.637 0.937,-1.903c1.387,-0.472 2.828,-0.807 4.283,-0.994c0.819,-0.109 1.574,0.475 1.68,1.295c0.106,0.822 -0.474,1.574 -1.296,1.68c-1.257,0.163 -2.502,0.452 -3.701,0.859c-0.16,0.055 -0.323,0.08 -0.483,0.08z" fill="#ffffff"></path><path d="M39.5,42c-0.384,0 -0.768,-0.146 -1.061,-0.439l-8,-8c-0.474,-0.474 -0.576,-1.203 -0.25,-1.789l5,-9c0.402,-0.724 1.314,-0.984 2.04,-0.583c0.724,0.402 0.985,1.315 0.583,2.04l-4.45,8.011l7.2,7.2c0.586,0.586 0.586,1.535 0,2.121c-0.294,0.293 -0.678,0.439 -1.062,0.439z" fill="#9c34c2"></path><circle cx="32" cy="32" r="3" fill="#ffa500"></circle><circle cx="33" cy="18" r="2" fill="#0089ad"></circle><circle cx="33" cy="46" r="2" fill="#0089ad"></circle><circle cx="47" cy="32" r="2" fill="#0089ad"></circle><circle cx="19" cy="32" r="2" fill="#0089ad"></circle></g></g></svg>