<svg xmlns="http://www.w3.org/2000/svg" xmlns:xlink="http://www.w3.org/1999/xlink" viewBox="0,0,256,256" width="48px" height="48px" fill-rule="nonzero"><g fill="none" fill-rule="nonzero" stroke="none" stroke-width="1" stroke-linecap="butt" stroke-linejoin="miter" stroke-miterlimit="10" stroke-dasharray="" stroke-dashoffset="0" font-family="none" font-weight="none" font-size="none" text-anchor="none" style="mix-blend-mode: normal"><g transform="scale(5.33333,5.33333)"><path d="M18,26h10v16h-10z" fill="#89c3b2"></path><path d="M30.5,32.79c-1.45,-0.6 -2.5,-0.79 -2.5,-0.79l-5,9l-5,-9c0,0 -11,1.99 -11,13h30.61c0.07,-1.55 0.35,-3.37 0.58,-4.74c-1.59,-4.31 -5.22,-6.47 -7.69,-7.47z" fill="#00acc1"></path><path d="M47,35.12c0,1.51 -0.63,2.65 -1.24,3.74c-0.43,0.78 -0.88,1.58 -1.14,2.55c-0.15,0.58 -0.29,1.21 -0.42,1.82c-0.54,2.45 -1.04,4.77 -2.76,4.77c-1.2,0 -1.92,-0.87 -1.92,-2.32c0,-1.34 -0.22,-3.25 -0.64,-5.67c-0.05,-0.25 -0.23,-0.28 -0.3,-0.28c-0.07,0 -0.29,0.01 -0.35,0.29c-0.01,0.08 -0.03,0.16 -0.04,0.24c-0.23,1.37 -0.51,3.19 -0.58,4.74c-0.01,0.23 -0.02,0.46 -0.02,0.68c0,1.45 -0.72,2.32 -1.92,2.32c-1.3,0 -1.9,-1.31 -2.35,-3c-0.15,-0.57 -0.28,-1.18 -0.42,-1.79c-0.13,-0.61 -0.26,-1.23 -0.41,-1.81c-0.26,-0.96 -0.71,-1.76 -1.14,-2.54c-0.61,-1.09 -1.24,-2.23 -1.24,-3.74c0,-0.85 0.14,-1.63 0.39,-2.33c0.85,-2.34 3.01,-3.79 5.89,-3.79c0.82,0 1.55,0.1 2.18,0.31c0.63,-0.21 1.37,-0.31 2.18,-0.31c1.91,0 3.52,0.61 4.64,1.76c1.07,1.1 1.63,2.6 1.61,4.36z" fill="#b2ebf2"></path><path d="M40.03,29.033c-0.53,0.044 -1.019,0.135 -1.457,0.279c-0.003,-0.001 -0.006,-0.001 -0.009,-0.002c1.016,0.413 1.926,1.206 2.635,2.324c0.09,0.142 0.241,0.219 0.395,0.219c0.087,0 0.175,-0.024 0.253,-0.075c0.218,-0.142 0.282,-0.436 0.142,-0.656c-0.552,-0.873 -1.218,-1.574 -1.959,-2.089z" fill="#90caf9"></path><path d="M15,18.27c-0.29,-0.18 -0.63,-0.27 -1,-0.27c-0.35,0 -0.67,0.08 -0.95,0.24h-0.01c-0.01,0.01 -0.03,0.02 -0.04,0.03c-0.32,0.18 -0.58,0.45 -0.76,0.78c-0.15,0.28 -0.24,0.61 -0.24,0.95c0,1.11 0.9,2 2,2h0.06c0.22,-0.01 0.43,-0.05 0.63,-0.13c0.55,-0.19 0.99,-0.63 1.18,-1.18c0.09,-0.21 0.13,-0.45 0.13,-0.69c0,-0.74 -0.4,-1.39 -1,-1.73zM33.76,19.05c-0.18,-0.33 -0.45,-0.6 -0.77,-0.78c-0.01,-0.01 -0.03,-0.02 -0.04,-0.03c-0.28,-0.15 -0.61,-0.24 -0.95,-0.24c-0.36,0 -0.71,0.1 -1,0.27c-0.6,0.35 -1,0.99 -1,1.73c0,0.24 0.04,0.48 0.13,0.69c0.19,0.55 0.63,0.99 1.18,1.18c0.2,0.08 0.41,0.12 0.63,0.13h0.06c1.1,0 2,-0.89 2,-2c0,-0.34 -0.09,-0.67 -0.24,-0.95z" fill="#ffa726"></path><path d="M32,14v7.08c0,0.31 -0.02,0.62 -0.06,0.92c-0.19,1.75 -0.88,3.35 -1.94,4.64c-1.64,2.05 -4.17,3.36 -7,3.36c-2.83,0 -5.36,-1.31 -7,-3.36c-1.06,-1.29 -1.75,-2.89 -1.94,-4.64c-0.04,-0.3 -0.06,-0.61 -0.06,-0.92v-7.08c0,-4.97 18,-7.64 18,0z" fill="#ffb74d"></path><path d="M27,19c-0.55,0 -1,0.45 -1,1c0,0.55 0.45,1 1,1c0.55,0 1,-0.45 1,-1c0,-0.55 -0.45,-1 -1,-1zM19,19c-0.55,0 -1,0.45 -1,1c0,0.55 0.45,1 1,1c0.55,0 1,-0.45 1,-1c0,-0.55 -0.45,-1 -1,-1z" fill="#784719"></path><path d="M33,16v2.26l-0.01,0.01l-0.99,0.86l-1,0.87v-5l-4,-4l-12,4v5l-1,-0.85l-1,-0.86v-2.29c0,-6.07 3.92,-11 10,-11h3l1,2c4.96,0.98 6,4.98 6,9z" fill="#424242"></path><path d="M30,21v5.64c-1.64,2.05 -4.17,3.36 -7,3.36c-2.83,0 -5.36,-1.31 -7,-3.36v-5.64c0.11,0.03 0.22,0.06 0.33,0.09c1.67,0.46 3.94,0.91 6.67,0.91c1.69,0 4.01,-0.17 6.67,-0.91c0.11,-0.03 0.22,-0.06 0.33,-0.09z" fill="#b2ebf2"></path><path d="M17.71,22.29l-1.42,1.42l-0.29,-0.33l-1.31,-1.51l-0.69,-0.79l-1.76,-2.03c0.18,-0.33 0.44,-0.6 0.76,-0.78v-0.07l0.04,0.04h0.01l0.95,0.83l1,0.86l0.87,0.76l0.46,0.4z" fill="#b2ebf2"></path><path d="M33.76,19.05l-1.76,2.03l-0.69,0.79l-1.31,1.51l-0.29,0.33l-1.42,-1.42l1.38,-1.2l0.46,-0.4l0.87,-0.76l1,-0.86l0.95,-0.83l0.05,-0.04v0.06l-0.01,0.01c0.32,0.18 0.59,0.45 0.77,0.78z" fill="#b2ebf2"></path><path d="M32,6c0,0 -1.88,-2 -8.75,-2c-6.87,0 -9.25,2 -9.25,2c0,0 -1,6 -1,10c0,0 5,-1 10,-1c5,0 10,1 10,1c0,-4 -1,-10 -1,-10z" fill="#00acc1"></path></g></g></svg>