<svg xmlns="http://www.w3.org/2000/svg" xmlns:xlink="http://www.w3.org/1999/xlink" viewBox="0,0,256,256" width="20px" height="20px" fill-rule="nonzero"><g fill="none" fill-rule="nonzero" stroke="none" stroke-width="1" stroke-linecap="butt" stroke-linejoin="miter" stroke-miterlimit="10" stroke-dasharray="" stroke-dashoffset="0" font-family="none" font-weight="none" font-size="none" text-anchor="none" style="mix-blend-mode: normal"><g transform="scale(6.4,6.4)"><path d="M30.597,38.5c-0.629,0 -1.24,-0.126 -1.815,-0.376c-3.455,-1.498 -10.136,-4.896 -16.073,-10.833c-5.937,-5.937 -9.335,-12.618 -10.833,-16.072c-0.758,-1.748 -0.364,-3.761 1.003,-5.128l3.727,-3.727c0.557,-0.557 1.298,-0.864 2.087,-0.864c0.789,0 1.53,0.307 2.087,0.865l4.883,4.883c1.151,1.151 1.151,3.024 0,4.175l-5.11,5.11l0.112,0.301c0.061,0.163 1.522,4.028 4.998,7.503c3.475,3.476 7.34,4.938 7.503,4.998l0.301,0.112l5.11,-5.11c0.558,-0.558 1.299,-0.865 2.088,-0.865c0.789,0 1.53,0.307 2.087,0.865l4.883,4.883c1.151,1.151 1.151,3.024 0,4.175l-3.727,3.727c-0.875,0.876 -2.083,1.378 -3.311,1.378z" fill="#89c3b2"></path><path d="M8.693,2c0.655,0 1.271,0.255 1.734,0.718l4.883,4.883c0.956,0.956 0.956,2.512 0,3.468l-4.883,4.883l-0.454,0.454l0.224,0.602c0.062,0.167 1.561,4.131 5.113,7.683c3.552,3.552 7.516,5.051 7.683,5.113l0.602,0.224l0.454,-0.454l4.883,-4.883c0.463,-0.463 1.079,-0.718 1.734,-0.718c0.655,0 1.271,0.255 1.734,0.718l4.883,4.883c0.956,0.956 0.956,2.512 0,3.468l-3.726,3.726c-0.785,0.783 -1.864,1.232 -2.961,1.232c-0.56,0 -1.103,-0.113 -1.616,-0.335c-3.422,-1.483 -10.04,-4.85 -15.918,-10.727c-5.878,-5.878 -9.244,-12.496 -10.727,-15.918c-0.676,-1.559 -0.323,-3.354 0.897,-4.575l3.726,-3.726c0.464,-0.464 1.08,-0.719 1.735,-0.719M8.693,1c-0.883,0 -1.767,0.337 -2.441,1.011l-3.727,3.727c-1.492,1.492 -1.947,3.744 -1.108,5.68c1.658,3.826 5.067,10.356 10.938,16.227c5.871,5.871 12.402,9.279 16.227,10.938c0.65,0.281 1.334,0.417 2.014,0.417c1.347,0 2.675,-0.534 3.666,-1.525l3.726,-3.726c1.348,-1.348 1.348,-3.534 0,-4.883l-4.883,-4.883c-0.674,-0.674 -1.558,-1.011 -2.441,-1.011c-0.883,0 -1.767,0.337 -2.441,1.011l-4.883,4.883c0,0 -3.886,-1.444 -7.324,-4.883c-3.438,-3.438 -4.883,-7.324 -4.883,-7.324l4.883,-4.883c1.348,-1.348 1.348,-3.534 0,-4.883l-4.883,-4.883c-0.673,-0.673 -1.556,-1.01 -2.44,-1.01z" fill="#5e9c76"></path></g></g></svg>